<svg width="26" height="27" viewBox="0 0 26 27" fill="none" xmlns="http://www.w3.org/2000/svg">
<path fill-rule="evenodd" clip-rule="evenodd" d="M13 26.5C20.1797 26.5 26 20.6797 26 13.5C26 6.3203 20.1797 0.5 13 0.5C5.8203 0.5 0 6.3203 0 13.5C0 20.6797 5.8203 26.5 13 26.5ZM11.7601 14.3482L17.106 9.07663C17.572 8.61066 18.3073 8.61066 18.7733 9.07663L19.354 9.65737C19.8206 10.1239 19.8194 10.8593 19.3516 11.3271L13.0366 17.7009L12.7536 17.9381C12.5858 18.07 12.4581 18.1497 12.361 18.1809C12.1854 18.2373 11.7361 18.2633 11.5834 18.2378C11.422 18.2109 11.2874 18.1708 11.1365 18.0927L10.9708 17.972L6.64635 13.7306C6.18038 13.2646 6.18038 12.5293 6.64635 12.0633L7.22709 11.4825C7.69306 11.0166 8.42841 11.0166 8.89438 11.4825L11.7601 14.3482Z" fill="#00B761"/>
</svg>
